<svg width="103" height="171" viewBox="0 0 103 171" fill="none" xmlns="http://www.w3.org/2000/svg">
<g id="avatar1">
<path d="M102 155C102 176.263 106 170 55.4997 170C4.99952 170 -5.4242e-05 175 4.41332e-10 150C5.19327e-05 126.065 33.1322 93 55.4997 93C77.8673 93 102 133.737 102 155Z" fill="#FF0000"/>
<path d="M92 43.5C92 64.763 73.8675 82 51.5 82C29.1325 82 11 64.763 11 43.5C11 22.237 29.1325 5 51.5 5C73.8675 5 92 22.237 92 43.5Z" fill="#FFD7A8"/>
<path d="M33 41.5C33 45.0899 30.5376 48 27.5 48C24.4624 48 22 45.0899 22 41.5C22 37.9101 24.4624 35 27.5 35C30.5376 35 33 37.9101 33 41.5Z" fill="white"/>
<path d="M81 41.5C81 45.0899 78.5376 48 75.5 48C72.4624 48 70 45.0899 70 41.5C70 37.9101 72.4624 35 75.5 35C78.5376 35 81 37.9101 81 41.5Z" fill="white"/>
<path d="M66.8865 61.3194C66.8865 63.5285 60.4558 69.3012 53 69.3012C45.5442 69.3012 39 63.5286 39 61.3195C39 59.1104 45.5 69.1217 53 67.9803C59.8865 69.8338 66.8865 59.1102 66.8865 61.3194Z" fill="white"/>
<path d="M78 41C78 42.6569 76.6569 44 75 44C73.3431 44 72 42.6569 72 41C72 39.3431 73.3431 38 75 38C76.6569 38 78 39.3431 78 41Z" fill="black"/>
<path d="M78 41C78 42.6569 76.6569 44 75 44C73.3431 44 72 42.6569 72 41C72 39.3431 73.3431 38 75 38C76.6569 38 78 39.3431 78 41Z" fill="black"/>
<path d="M30 41C30 42.6569 28.6569 44 27 44C25.3431 44 24 42.6569 24 41C24 39.3431 25.3431 38 27 38C28.6569 38 30 39.3431 30 41Z" fill="black"/>
<path d="M30 41C30 42.6569 28.6569 44 27 44C25.3431 44 24 42.6569 24 41C24 39.3431 25.3431 38 27 38C28.6569 38 30 39.3431 30 41Z" fill="black"/>
<path d="M88 21.5C99 43.9999 80 15.9998 51.5 28.5C30 18.9998 13.5 35.9934 13.5 25.5C13.5 15.0065 32 -6.00005 51.5 3.50003C65 -6.50002 88 11.0066 88 21.5Z" fill="#703C3C"/>
<path d="M19 39C19 46.732 16.5376 53 13.5 53C10.4624 53 8 46.732 8 39C8 31.268 10.4624 25 13.5 25C16.5376 25 19 31.268 19 39Z" fill="#703C3C"/>
<path d="M96 39.5C96 46.4036 93.7614 52 91 52C88.2386 52 86 46.4036 86 39.5C86 32.5964 88.2386 27 91 27C93.7614 27 96 32.5964 96 39.5Z" fill="#703C3C"/>
</g>
</svg>
