<svg width="110" height="186" viewBox="0 0 110 186" fill="none" xmlns="http://www.w3.org/2000/svg">
<g id="avatar 2">
<path id="Ellipse 2" d="M105 170C105 191.263 109 185 58.4997 185C7.99952 185 2.99995 190 3 165C3.00005 141.065 36.1322 108 58.4997 108C80.8673 108 105 148.737 105 170Z" fill="#8F00FF"/>
<ellipse id="Ellipse 1" cx="54.5" cy="58.5" rx="40.5" ry="38.5" fill="#9A764C"/>
<ellipse id="Ellipse 3" cx="30.5" cy="56.5" rx="5.5" ry="6.5" fill="white"/>
<ellipse id="Ellipse 4" cx="78.5" cy="56.5" rx="5.5" ry="6.5" fill="white"/>
<path id="Ellipse 5" d="M69.8865 76.3194C69.8865 78.5285 63.4558 84.3012 56 84.3012C48.5442 84.3012 42 78.5286 42 76.3195C42 74.1104 48.5 84.1217 56 82.9803C62.8865 84.8338 69.8865 74.1102 69.8865 76.3194Z" fill="white"/>
<g id="Ellipse 6">
<circle cx="78" cy="56" r="3" fill="black"/>
<circle cx="78" cy="56" r="3" fill="black"/>
</g>
<g id="Ellipse 7">
<circle cx="30" cy="56" r="3" fill="black"/>
<circle cx="30" cy="56" r="3" fill="black"/>
</g>
<g id="Ellipse 19">
<path d="M81.042 164.19C81.042 179.758 79.9908 185.386 88.4104 185.386C106.515 187.903 110 182.833 110 167.264C110 151.696 96.83 128 88.4104 128C79.9908 128 81.042 148.621 81.042 164.19Z" fill="white"/>
<path d="M81.042 164.19C81.042 179.758 79.9908 185.386 88.4104 185.386C106.515 187.903 110 182.833 110 167.264C110 151.696 96.83 128 88.4104 128C79.9908 128 81.042 148.621 81.042 164.19Z" fill="white"/>
</g>
<g id="Ellipse 18">
<path d="M33.233 163.946C33.233 179.41 34.4393 185 24.7767 185C4 187.5 0 182.464 0 167C0 151.536 15.1142 128 24.7767 128C34.4393 128 33.233 148.482 33.233 163.946Z" fill="white"/>
<path d="M33.233 163.946C33.233 179.41 34.4393 185 24.7767 185C4 187.5 0 182.464 0 167C0 151.536 15.1142 128 24.7767 128C34.4393 128 33.233 148.482 33.233 163.946Z" fill="white"/>
</g>
<g id="hair">
<path d="M77.2668 21.7468C77.414 11.3934 83.0842 3.07917 89.9314 3.17657C96.7786 3.27397 102.21 11.7461 102.063 22.0996C101.915 32.4531 96.2453 40.7673 89.3981 40.6699C82.5509 40.5725 77.1195 32.1003 77.2668 21.7468Z" fill="black"/>
<path d="M70.2668 18.7468C70.414 8.3933 76.0842 0.079105 82.9314 0.176506C89.7786 0.273908 95.21 8.74603 95.0627 19.0995C94.9154 29.453 89.2453 37.7672 82.3981 37.6698C75.5509 37.5724 70.1195 29.1003 70.2668 18.7468Z" fill="black"/>
<path d="M49.2668 18.7467C49.414 8.39324 55.0842 0.0790439 61.9314 0.176445C68.7786 0.273847 74.21 8.74596 74.0627 19.0994C73.9154 29.4529 68.2453 37.7671 61.3981 37.6697C54.5509 37.5723 49.1195 29.1002 49.2668 18.7467Z" fill="black"/>
<path d="M25.2667 18.7467C25.414 8.39318 31.0841 0.0789829 37.9314 0.176384C44.7786 0.273786 50.2099 8.7459 50.0627 19.0994C49.9154 29.4529 44.2452 37.7671 37.398 37.6697C30.5508 37.5723 25.1194 29.1002 25.2667 18.7467Z" fill="black"/>
<path d="M3.26672 21.7466C3.414 11.3931 9.08415 3.07892 15.9314 3.17632C22.7786 3.27372 28.21 11.7458 28.0627 22.0993C27.9154 32.4528 22.2452 40.767 15.398 40.6696C8.55081 40.5722 3.11944 32.1001 3.26672 21.7466Z" fill="black"/>
<path d="M84 34.5C84 40.299 70.3447 45 53.5 45C36.6554 45 23 40.299 23 34.5C23 28.701 36.6554 24 53.5 24C70.3447 24 84 28.701 84 34.5Z" fill="black"/>
<path d="M95.5006 38.5C91.0007 66 106.501 44.5 53.5004 23.5C5.50005 53.5 15 71.5 10 35.5C-8.99983 21 27.2669 10 53.5004 10C79.7339 10 114.501 20 95.5006 38.5Z" fill="black"/>
</g>
</g>
</svg>
