<svg width="111" height="174" viewBox="0 0 111 174" fill="none" xmlns="http://www.w3.org/2000/svg">
<g id="avatar 4">
<path d="M102 158C102 179.263 106 173 55.4997 173C4.99952 173 -5.4242e-05 178 4.41332e-10 153C5.19327e-05 129.065 33.1322 96 55.4997 96C77.8673 96 102 136.737 102 158Z" fill="#00FF38"/>
<path d="M92 46.5C92 67.763 73.8675 85 51.5 85C29.1325 85 11 67.763 11 46.5C11 25.237 29.1325 8 51.5 8C73.8675 8 92 25.237 92 46.5Z" fill="#FFB866"/>
<path d="M33 44.5C33 48.0899 30.5376 51 27.5 51C24.4624 51 22 48.0899 22 44.5C22 40.9101 24.4624 38 27.5 38C30.5376 38 33 40.9101 33 44.5Z" fill="white"/>
<path d="M81 44.5C81 48.0899 78.5376 51 75.5 51C72.4624 51 70 48.0899 70 44.5C70 40.9101 72.4624 38 75.5 38C78.5376 38 81 40.9101 81 44.5Z" fill="white"/>
<path d="M66.8865 64.3194C66.8865 66.5285 60.4558 72.3012 53 72.3012C45.5442 72.3012 39 66.5286 39 64.3195C39 62.1104 45.5 72.1217 53 70.9803C59.8865 72.8338 66.8865 62.1102 66.8865 64.3194Z" fill="white"/>
<path d="M78 44C78 45.6569 76.6569 47 75 47C73.3431 47 72 45.6569 72 44C72 42.3431 73.3431 41 75 41C76.6569 41 78 42.3431 78 44Z" fill="black"/>
<path d="M78 44C78 45.6569 76.6569 47 75 47C73.3431 47 72 45.6569 72 44C72 42.3431 73.3431 41 75 41C76.6569 41 78 42.3431 78 44Z" fill="black"/>
<path d="M30 44C30 45.6569 28.6569 47 27 47C25.3431 47 24 45.6569 24 44C24 42.3431 25.3431 41 27 41C28.6569 41 30 42.3431 30 44Z" fill="black"/>
<path d="M30 44C30 45.6569 28.6569 47 27 47C25.3431 47 24 45.6569 24 44C24 42.3431 25.3431 41 27 41C28.6569 41 30 42.3431 30 44Z" fill="black"/>
<path d="M90.5 32C90.5 40.8366 73.8675 36.5 51.5 36.5C29.1325 36.5 14.5 38.3366 14.5 29.5C14.5 20.6634 29.1325 0 51.5 0C73.8675 0 90.5 23.1634 90.5 32Z" fill="black"/>
<path d="M111 33C111 35.7614 101.15 38 89 38C76.8497 38 67 35.7614 67 33C67 30.2386 76.8497 28 89 28C101.15 28 111 30.2386 111 33Z" fill="black"/>
<path d="M90.4446 126.068L6.24703 171.958L1.58257 163.399L85.7801 117.51L90.4446 126.068Z" fill="white"/>
</g>
</svg>
