<svg width="103" height="176" viewBox="0 0 103 176" fill="none" xmlns="http://www.w3.org/2000/svg">
<g id="avatar 3">
<path d="M102 160C102 181.263 106 175 55.4997 175C4.99952 175 -5.4242e-05 180 4.41332e-10 155C5.19327e-05 131.065 33.1322 98 55.4997 98C77.8673 98 102 138.737 102 160Z" fill="#CC00FF"/>
<path d="M92.9999 43.5C92.9999 61.7253 104 115 52.2082 92.9999C-4.49999 126.5 8.2082 57.2253 8.2082 39C8.2082 20.7746 23.2132 9.49995 52.2082 9.49995C81.2031 9.49995 92.9999 25.2746 92.9999 43.5Z" fill="#FFC700"/>
<path d="M92 48.5C92 69.763 73.8675 87 51.5 87C29.1325 87 11 69.763 11 48.5C11 27.237 29.1325 10 51.5 10C73.8675 10 92 27.237 92 48.5Z" fill="#FFDAAE"/>
<path d="M33 46.5C33 50.0899 30.5376 53 27.5 53C24.4624 53 22 50.0899 22 46.5C22 42.9101 24.4624 40 27.5 40C30.5376 40 33 42.9101 33 46.5Z" fill="white"/>
<path d="M81 46.5C81 50.0899 78.5376 53 75.5 53C72.4624 53 70 50.0899 70 46.5C70 42.9101 72.4624 40 75.5 40C78.5376 40 81 42.9101 81 46.5Z" fill="white"/>
<path d="M66.8865 66.3194C66.8865 68.5285 60.4558 74.3012 53 74.3012C45.5442 74.3012 39 68.5286 39 66.3195C39 64.1104 45.5 74.1217 53 72.9803C59.8865 74.8338 66.8865 64.1102 66.8865 66.3194Z" fill="white"/>
<path d="M78 46C78 47.6569 76.6569 49 75 49C73.3431 49 72 47.6569 72 46C72 44.3431 73.3431 43 75 43C76.6569 43 78 44.3431 78 46Z" fill="black"/>
<path d="M78 46C78 47.6569 76.6569 49 75 49C73.3431 49 72 47.6569 72 46C72 44.3431 73.3431 43 75 43C76.6569 43 78 44.3431 78 46Z" fill="black"/>
<path d="M30 46C30 47.6569 28.6569 49 27 49C25.3431 49 24 47.6569 24 46C24 44.3431 25.3431 43 27 43C28.6569 43 30 44.3431 30 46Z" fill="black"/>
<path d="M30 46C30 47.6569 28.6569 49 27 49C25.3431 49 24 47.6569 24 46C24 44.3431 25.3431 43 27 43C28.6569 43 30 44.3431 30 46Z" fill="black"/>
<path d="M91.4701 27.5C91.4701 37.7173 70.9701 36.5 50.9701 27.5C29.4701 38 10.4701 37.7173 10.4701 27.5C10.4701 17.2828 23.9701 -13.9997 50.9701 10.5001C66.9701 -15.9997 91.4701 17.2828 91.4701 27.5Z" fill="#FFC700"/>
</g>
</svg>
