<svg width="30" height="28" viewBox="0 0 30 28" fill="none" xmlns="http://www.w3.org/2000/svg">
<g id="Heart" clip-path="url(#clip0_26_186)">
<g id="Vector" filter="url(#filter0_d_26_186)">
<path fill-rule="evenodd" clip-rule="evenodd" d="M5.92964 7.29929C4.83295 8.32376 4.21692 9.7127 4.21692 11.1609C4.21692 12.6091 4.83295 13.998 5.92964 15.0225L6.7537 15.7947L14.9981 23.5179L23.242 15.7947L24.0665 15.0225C25.1632 13.998 25.7792 12.6091 25.7792 11.1609C25.7792 9.7127 25.1632 8.32376 24.0665 7.29929C23.5271 6.79087 22.8851 6.38727 22.1775 6.11183C21.47 5.8364 20.7109 5.69458 19.9443 5.69458C19.1777 5.69458 18.4187 5.8364 17.7111 6.11183C17.0036 6.38727 16.3616 6.79087 15.8221 7.29929L14.9981 8.07148L14.1735 7.29929C13.6341 6.79093 12.9921 6.38739 12.2846 6.112C11.5771 5.8366 10.8182 5.6948 10.0516 5.6948C9.28503 5.6948 8.52606 5.8366 7.81856 6.112C7.11105 6.38739 6.46905 6.79093 5.92964 7.29929Z" fill="#FF763B"/>
</g>
<path id="Vector_2" opacity="0.4" d="M6.6281 13.0244C6.27852 12.4593 6.09448 11.8182 6.09448 11.1657C6.09448 10.5131 6.27852 9.87206 6.6281 9.30694C6.9777 8.74168 7.48059 8.2723 8.08621 7.94598C8.69182 7.61967 9.37881 7.44791 10.0781 7.448" stroke="white" stroke-width="1.99933" stroke-linecap="round" stroke-linejoin="round"/>
<path id="Vector_3" fill-rule="evenodd" clip-rule="evenodd" d="M10.0519 5.69411C9.28536 5.69391 8.52634 5.83555 7.81879 6.11085C7.11123 6.38615 6.46917 6.78964 5.92975 7.29799C5.6985 7.51742 5.4873 7.75449 5.29834 8.00674C5.30771 7.99799 5.30771 7.99668 5.31334 7.99143C5.80571 7.52744 6.39173 7.15912 7.03752 6.90776C7.68331 6.65639 8.37607 6.52698 9.07576 6.52698C9.77546 6.52698 10.4682 6.65639 11.114 6.90776C11.7598 7.15912 12.3458 7.52744 12.8382 7.99143L13.9501 9.03793L14.7024 8.33224C14.799 8.24168 14.9007 8.15986 15.0024 8.07805L14.1751 7.29755C13.6357 6.78912 12.9936 6.38555 12.2861 6.11017C11.5785 5.8348 10.8195 5.69309 10.0529 5.69324L10.0519 5.69411ZM19.944 5.69411C18.729 5.69411 17.5177 6.05549 16.4916 6.76686C17.4216 6.48793 18.4161 6.45473 19.365 6.67095C20.3139 6.88717 21.1801 7.34436 21.8677 7.99186C22.8686 8.92683 23.4309 10.1945 23.4309 11.5161C23.4309 12.8378 22.8686 14.1055 21.8677 15.0404L21.1154 15.7461L13.9088 22.4976L14.9977 23.5179L23.2421 15.7938L24.0657 15.0212C25.1623 13.9966 25.7783 12.6076 25.7783 11.1594C25.7783 9.71114 25.1623 8.32215 24.0657 7.29755C23.5263 6.78925 22.8843 6.38579 22.1769 6.11049C21.4694 5.8352 20.7105 5.69353 19.944 5.69368V5.69411Z" fill="#D37200"/>
</g>
<defs>
<filter id="filter0_d_26_186" x="0.216919" y="5.69458" width="29.5623" height="25.8232" filterUnits="userSpaceOnUse" color-interpolation-filters="sRGB">
<feFlood flood-opacity="0" result="BackgroundImageFix"/>
<feColorMatrix in="SourceAlpha" type="matrix" values="0 0 0 0 0 0 0 0 0 0 0 0 0 0 0 0 0 0 127 0" result="hardAlpha"/>
<feOffset dy="4"/>
<feGaussianBlur stdDeviation="2"/>
<feComposite in2="hardAlpha" operator="out"/>
<feColorMatrix type="matrix" values="0 0 0 0 0 0 0 0 0 0 0 0 0 0 0 0 0 0 0.25 0"/>
<feBlend mode="normal" in2="BackgroundImageFix" result="effect1_dropShadow_26_186"/>
<feBlend mode="normal" in="SourceGraphic" in2="effect1_dropShadow_26_186" result="shape"/>
</filter>
<clipPath id="clip0_26_186">
<rect width="30" height="28" fill="white"/>
</clipPath>
</defs>
</svg>
