<svg width="48" height="46" viewBox="0 0 48 46" fill="none" xmlns="http://www.w3.org/2000/svg">
<g id="&#240;&#159;&#166;&#134; icon &#34;love song&#34;">
<path id="Vector" d="M25.6929 45.9048C21.9872 45.8918 18.9575 42.6999 18.7866 38.9981C18.7405 38.0173 18.8938 37.0374 19.2373 36.1175C19.5807 35.1977 20.1072 34.3571 20.7849 33.6466C21.4626 32.9361 22.2773 32.3704 23.1799 31.9838C24.0825 31.5972 25.0541 31.3978 26.0359 31.3974C26.0359 31.3974 26.1826 31.424 26.1779 31.284L25.7746 22.4851C25.7602 22.1549 25.6188 21.8429 25.3798 21.6145C25.1409 21.386 24.8229 21.2587 24.4923 21.2591H15.0448C14.8712 21.2592 14.6995 21.2945 14.5399 21.3628C14.3803 21.4311 14.2363 21.531 14.1164 21.6565C13.9965 21.782 13.9033 21.9305 13.8424 22.093C13.7815 22.2556 13.7542 22.4287 13.7621 22.6021C13.7621 22.6021 14.5111 38.3435 14.5111 38.6547C14.5112 39.6349 14.3128 40.6049 13.9278 41.5063C13.5428 42.4076 12.9791 43.2217 12.2708 43.8992C11.5626 44.5768 10.7244 45.1038 9.80682 45.4485C8.88927 45.7932 7.9114 45.9484 6.93221 45.9048C5.13173 45.8141 3.42845 45.0606 2.1503 43.7892C0.872154 42.5179 0.109508 40.8187 0.00919571 39.0187C-0.040297 38.0365 0.110371 37.0546 0.45205 36.1324C0.793728 35.2103 1.31929 34.3672 1.9968 33.6545C2.67432 32.9417 3.48965 32.374 4.39328 31.9861C5.29691 31.5981 6.26998 31.3978 7.25338 31.3974C7.25338 31.3974 7.45164 31.4058 7.45164 31.2868L6.95957 17.4562C6.94561 17.0708 7.00947 16.6866 7.14733 16.3264C7.2852 15.9662 7.49424 15.6376 7.76197 15.36C8.0297 15.0824 8.35063 14.8616 8.70559 14.7109C9.06055 14.5601 9.44225 14.4824 9.8279 14.4824H29.6644C30.4094 14.4796 31.1261 14.7675 31.662 15.285C32.198 15.8024 32.511 16.5086 32.5343 17.2532L33.2944 38.6547C33.2979 39.6367 33.1003 40.609 32.7139 41.5118C32.3274 42.4146 31.7603 43.2287 31.0474 43.9041C29.5969 45.252 27.672 45.9713 25.6929 45.9048ZM26.0458 32.9843C25.2775 32.9827 24.5169 33.1374 23.8102 33.4388C23.1035 33.7402 22.4654 34.1821 21.9347 34.7377C21.404 35.2933 20.9917 35.9509 20.7229 36.6706C20.4541 37.3904 20.3344 38.1573 20.371 38.9247C20.4461 40.3312 21.0386 41.6602 22.0347 42.656C23.0307 43.6518 24.3598 44.2441 25.7663 44.3188C26.5316 44.355 27.2962 44.2357 28.0142 43.9683C28.7321 43.7009 29.3884 43.2909 29.9436 42.7629C30.4987 42.235 30.9412 41.6 31.2443 40.8964C31.5474 40.1928 31.7049 39.4351 31.7072 38.669L30.9483 17.3091C30.9376 16.9762 30.7976 16.6606 30.5579 16.4293C30.3183 16.198 29.9978 16.0693 29.6648 16.0705H9.82949C9.65697 16.0703 9.48618 16.1049 9.32733 16.1722C9.16849 16.2396 9.02485 16.3382 8.90501 16.4624C8.78516 16.5865 8.69156 16.7334 8.62981 16.8945C8.56806 17.0556 8.53942 17.2275 8.5456 17.3999L9.03568 31.2309C9.04447 31.4588 9.00658 31.686 8.92435 31.8987C8.84212 32.1113 8.71728 32.3049 8.5575 32.4676C8.39704 32.6308 8.20572 32.7603 7.9947 32.8488C7.78367 32.9373 7.55715 32.983 7.32832 32.9831H7.25378C6.48512 32.9834 5.72456 33.1401 5.01831 33.4435C4.31207 33.7469 3.67489 34.1907 3.14549 34.748C2.61609 35.3053 2.20552 35.9644 1.93875 36.6853C1.67198 37.4061 1.55456 38.1737 1.59364 38.9414C1.67219 40.3468 2.26772 41.6735 3.26565 42.6663C4.26359 43.659 5.5934 44.2476 6.99922 44.3188C7.7646 44.3532 8.52901 44.2321 9.24629 43.9629C9.96357 43.6937 10.6189 43.2819 11.1726 42.7524C11.7263 42.2228 12.1669 41.5866 12.4679 40.8821C12.7689 40.1775 12.924 39.4193 12.9238 38.6531C12.9238 38.3998 12.1764 22.6739 12.1764 22.6739C12.1586 22.2863 12.2196 21.8991 12.3557 21.5358C12.4917 21.1725 12.7 20.8405 12.968 20.5599C13.236 20.2793 13.5581 20.056 13.9149 19.9035C14.2716 19.7509 14.6556 19.6723 15.0436 19.6723H24.4923C25.2311 19.6713 25.9417 19.9556 26.4759 20.466C27.0101 20.9764 27.3265 21.6733 27.3591 22.4114L27.7623 31.2111C27.7734 31.4388 27.7378 31.6665 27.6577 31.88C27.5775 32.0935 27.4546 32.2883 27.2964 32.4525C27.1346 32.6201 26.9407 32.7534 26.7262 32.8445C26.5118 32.9356 26.2812 32.9826 26.0482 32.9827L26.0458 32.9843Z" fill="white"/>
<path id="Vector_2" d="M31.8551 10.8933C31.5644 10.8931 31.2776 10.8271 31.0161 10.7002C29.84 10.1332 25.9198 8.13082 24.8333 6.16851C24.4813 5.5906 24.2622 4.94169 24.1917 4.26871C24.1212 3.59573 24.2011 2.91549 24.4257 2.27718C24.6393 1.76561 24.9661 1.30916 25.3817 0.942192C25.7972 0.57523 26.2905 0.307323 26.8246 0.158646C28.8749 -0.478145 30.3321 0.942937 31.3955 1.97941C31.4586 2.04087 31.5208 2.10193 31.5827 2.1618C31.6566 2.23291 31.7551 2.27264 31.8577 2.27264C31.9602 2.27264 32.0588 2.23291 32.1326 2.1618L32.2944 2.00637C33.388 0.956022 34.8876 -0.486472 36.8959 0.161421C37.4383 0.325243 37.9358 0.611788 38.3497 0.998845C38.7635 1.3859 39.0827 1.86307 39.2824 2.39336C39.5001 3.01766 39.5755 3.68272 39.5029 4.33988C39.4304 4.99705 39.2119 5.62969 38.8633 6.1915C37.6342 8.24422 33.5105 10.3072 32.6945 10.6998C32.4328 10.8267 32.1459 10.8928 31.8551 10.8933ZM27.823 1.59004C27.6427 1.59086 27.4635 1.61906 27.2917 1.6737C26.9835 1.75317 26.6975 1.90215 26.4558 2.10924C26.2141 2.31632 26.023 2.576 25.8972 2.86838C25.7621 3.28822 25.7211 3.73265 25.777 4.17013C25.833 4.6076 25.9846 5.02738 26.2211 5.39968C26.8611 6.55589 29.436 8.17523 31.7048 9.27118C31.7519 9.29407 31.8035 9.30597 31.8559 9.30597C31.9082 9.30597 31.9599 9.29407 32.0069 9.27118C34.1481 8.23788 36.7829 6.57849 37.5033 5.37628C37.7298 5.01955 37.8738 4.61679 37.9249 4.19734C37.976 3.77789 37.9329 3.35232 37.7987 2.95164C37.683 2.64492 37.4973 2.36944 37.2563 2.14711C37.0154 1.92477 36.726 1.76172 36.4109 1.67092C35.38 1.34103 34.5474 2.04166 33.3919 3.15188C33.175 3.36084 32.9637 3.56306 32.7575 3.74664C32.5085 3.96569 32.1881 4.08651 31.8565 4.08651C31.5248 4.08651 31.2045 3.96569 30.9554 3.74664C30.7365 3.55354 30.5145 3.33784 30.2877 3.11619C29.3622 2.21573 28.6485 1.59004 27.823 1.59004Z" fill="white"/>
<path id="Vector_3" d="M41.2971 22.6545C41.0337 22.6542 40.7737 22.5944 40.5366 22.4796C39.2555 21.8631 36.1822 20.2509 35.2766 18.6133C34.9713 18.1107 34.7816 17.5466 34.7211 16.9617C34.6606 16.3769 34.7309 15.7859 34.9269 15.2315C35.1134 14.7838 35.3989 14.3841 35.7621 14.0627C36.1252 13.7412 36.5566 13.5062 37.0236 13.3754C38.8221 12.8179 40.0589 14.0634 40.9954 14.9381C41.2884 15.2116 41.4819 15.053 41.5767 14.9615C42.5216 14.0542 43.8177 12.814 45.5763 13.3778C46.051 13.5214 46.4863 13.7723 46.8484 14.1113C47.2105 14.4502 47.4897 14.868 47.6643 15.3322C47.8539 15.8753 47.9198 16.4539 47.857 17.0257C47.7942 17.5975 47.6044 18.1481 47.3015 18.6371C46.2475 20.3956 42.748 22.1466 42.0565 22.4796C41.8197 22.5943 41.5602 22.6541 41.2971 22.6545ZM37.9066 14.8251C37.7662 14.8258 37.6268 14.8479 37.4931 14.8905C37.2508 14.9507 37.0259 15.0662 36.8359 15.2281C36.6459 15.39 36.4961 15.5938 36.3983 15.8235C36.2919 16.1594 36.2605 16.5147 36.3065 16.8641C36.3525 17.2136 36.4746 17.5486 36.6644 17.8456C37.1893 18.7941 39.3325 20.1394 41.2242 21.0514C41.2467 21.0624 41.2713 21.0681 41.2964 21.0681C41.3214 21.0681 41.346 21.0624 41.3685 21.0514C43.1552 20.1902 45.3479 18.8119 45.941 17.8219C46.1217 17.5378 46.2368 17.2171 46.2779 16.883C46.3191 16.5489 46.2853 16.2099 46.1789 15.8905C46.0879 15.6501 45.9421 15.4344 45.753 15.2603C45.5639 15.0863 45.3368 14.9589 45.0897 14.8881C44.2888 14.6312 43.6139 15.2053 42.675 16.1058C42.491 16.2822 42.3118 16.4543 42.1369 16.6089C41.9041 16.8133 41.6049 16.926 41.2952 16.926C40.9854 16.926 40.6862 16.8133 40.4534 16.6089C40.2682 16.4452 40.0799 16.262 39.8872 16.074C39.1164 15.3207 38.5529 14.8251 37.9066 14.8251Z" fill="white"/>
</g>
</svg>
