<svg width="33" height="30" viewBox="0 0 33 30" fill="none" xmlns="http://www.w3.org/2000/svg">
<g id="&#240;&#159;&#166;&#134; icon &#34;apple music&#34;" filter="url(#filter0_d_27_195)">
<path id="Vector" d="M27.9907 6.10453C27.9907 5.48952 27.931 4.877 27.7621 4.27823C27.4588 3.18757 26.7437 2.35442 25.6735 1.74252C25.1229 1.43001 24.517 1.23813 23.8731 1.13688C23.3786 1.05875 22.8776 1.02313 22.376 1.01313C22.3386 1.01 22.2976 1.00313 22.2559 1H10.734C10.5881 1.01 10.4422 1.01625 10.2963 1.0225C9.58117 1.05813 8.87035 1.12313 8.19618 1.35751C6.91613 1.7969 5.99113 2.56505 5.45208 3.67196C5.26521 4.04635 5.17106 4.44323 5.10422 4.847C5.04815 5.17263 5.01797 5.50139 5.00719 5.83015C5.00719 5.8564 5 5.88203 5 5.90828V16.0942C5.00719 16.2117 5.01509 16.3286 5.02228 16.4461C5.07115 17.1268 5.17178 17.8005 5.50167 18.4255C6.12337 19.6075 7.16768 20.385 8.60154 20.7594C9.00187 20.8669 9.42161 20.9156 9.84063 20.9481C10.3725 20.9938 10.9036 21 11.4355 21H22.0065C22.5082 21 23.0099 20.9706 23.5115 20.9156C24.3014 20.8275 25.0424 20.6256 25.713 20.2419C26.518 19.7793 27.1246 19.1674 27.5134 18.4024C27.6931 18.0505 27.7944 17.6768 27.8692 17.2986C27.9777 16.7355 28 16.1655 28 15.5961C27.9964 12.4316 28 9.26776 27.9964 6.10328L27.9907 6.10453ZM21.8362 9.42776V14.1873C21.8362 14.5354 21.7801 14.8773 21.6005 15.1929C21.3237 15.6842 20.8745 15.9936 20.2715 16.1436C19.938 16.228 19.5938 16.2736 19.2459 16.2867C18.336 16.3261 17.5461 15.7886 17.3851 15.0073C17.2464 14.3629 17.6022 13.6529 18.3806 13.321C18.6874 13.191 19.0209 13.1129 19.3537 13.0541C19.7167 12.986 20.0796 12.9241 20.439 12.8522C20.7049 12.8004 20.8767 12.6604 20.9292 12.4222C20.9443 12.3704 20.9478 12.3147 20.9478 12.2629C20.9478 10.7491 20.9478 9.23526 20.9478 7.72521C20.9478 7.67333 20.9363 7.62083 20.922 7.57208C20.8846 7.4452 20.7797 7.3702 20.6302 7.37645C20.4764 7.3827 20.3269 7.40583 20.1774 7.43208C19.4471 7.55583 18.7176 7.68271 17.991 7.81271L14.4462 8.43461C14.4311 8.43773 14.4125 8.44461 14.3974 8.44461C14.1314 8.50961 14.038 8.61399 14.0265 8.85462C14.0229 8.89025 14.0265 8.9265 14.0265 8.96212C14.0229 11.1303 14.0265 13.2985 14.0229 15.4661C14.0229 15.818 13.9776 16.163 13.8173 16.488C13.5514 17.0218 13.0799 17.3574 12.4439 17.5168C12.1068 17.6011 11.7625 17.6505 11.4103 17.6599C10.4932 17.6893 9.72923 17.1586 9.57254 16.3742C9.43742 15.6973 9.79319 14.9679 10.6765 14.6423C11.0208 14.5185 11.3766 14.4504 11.7395 14.3854C12.0126 14.3367 12.2901 14.2879 12.5632 14.2392C12.9297 14.171 13.1209 13.9692 13.1396 13.6435V13.5198C13.1396 11.0522 13.1396 8.58461 13.1396 6.11704C13.1396 6.01266 13.1547 5.9089 13.1806 5.80765C13.2481 5.57014 13.4429 5.43326 13.7045 5.37764C13.9482 5.32201 14.199 5.28326 14.4455 5.23763C15.1492 5.11388 15.8492 4.99012 16.5528 4.8695L18.7277 4.48511C19.3717 4.37448 20.0113 4.26073 20.6553 4.1501C20.8652 4.11447 21.0787 4.0751 21.2914 4.06197C21.5868 4.03947 21.7931 4.20198 21.8233 4.46261C21.8304 4.52449 21.8348 4.58636 21.8348 4.64824V9.42401L21.8362 9.42776Z" fill="white"/>
</g>
<defs>
<filter id="filter0_d_27_195" x="0" y="0" width="33" height="30" filterUnits="userSpaceOnUse" color-interpolation-filters="sRGB">
<feFlood flood-opacity="0" result="BackgroundImageFix"/>
<feColorMatrix in="SourceAlpha" type="matrix" values="0 0 0 0 0 0 0 0 0 0 0 0 0 0 0 0 0 0 127 0" result="hardAlpha"/>
<feOffset dy="4"/>
<feGaussianBlur stdDeviation="2.5"/>
<feComposite in2="hardAlpha" operator="out"/>
<feColorMatrix type="matrix" values="0 0 0 0 0 0 0 0 0 0 0 0 0 0 0 0 0 0 0.25 0"/>
<feBlend mode="normal" in2="BackgroundImageFix" result="effect1_dropShadow_27_195"/>
<feBlend mode="normal" in="SourceGraphic" in2="effect1_dropShadow_27_195" result="shape"/>
</filter>
</defs>
</svg>
