<svg width="23" height="20" viewBox="0 0 23 20" fill="none" xmlns="http://www.w3.org/2000/svg">
<rect width="23" height="20" fill="#1E1E1E"/>
<path d="M-286 -2828C-286 -2829.1 -285.105 -2830 -284 -2830H2364C2365.1 -2830 2366 -2829.1 2366 -2828V1683C2366 1684.1 2365.1 1685 2364 1685H-284C-285.105 1685 -286 1684.1 -286 1683V-2828Z" fill="#404040"/>
<path d="M-284 -2829H2364V-2831H-284V-2829ZM2365 -2828V1683H2367V-2828H2365ZM2364 1684H-284V1686H2364V1684ZM-285 1683V-2828H-287V1683H-285ZM-284 1684C-284.552 1684 -285 1683.55 -285 1683H-287C-287 1684.66 -285.657 1686 -284 1686V1684ZM2365 1683C2365 1683.55 2364.55 1684 2364 1684V1686C2365.66 1686 2367 1684.66 2367 1683H2365ZM2364 -2829C2364.55 -2829 2365 -2828.55 2365 -2828H2367C2367 -2829.66 2365.66 -2831 2364 -2831V-2829ZM-284 -2831C-285.657 -2831 -287 -2829.66 -287 -2828H-285C-285 -2828.55 -284.552 -2829 -284 -2829V-2831Z" fill="white" fill-opacity="0.1"/>
<g clip-path="url(#clip0_0_1)">
<rect width="393" height="852" transform="translate(-159 -267)" fill="white"/>
<rect x="-138" y="-7" width="362" height="34" rx="10" fill="#FF763B"/>
<path d="M-108 8C-108 2.47715 -103.523 -2 -98 -2H29C34.5228 -2 39 2.47715 39 8V12C39 17.5228 34.5228 22 29 22H-98C-103.523 22 -108 17.5228 -108 12V8Z" fill="white"/>
<g filter="url(#filter0_d_0_1)">
<path d="M22.9907 5.10453C22.9907 4.48952 22.931 3.877 22.7621 3.27823C22.4588 2.18757 21.7437 1.35442 20.6735 0.742523C20.1229 0.430013 19.517 0.238132 18.8731 0.136879C18.3786 0.0587518 17.8776 0.0231257 17.376 0.0131254C17.3386 0.0100003 17.2976 0.0031251 17.2559 0H5.73401C5.58811 0.0100003 5.4422 0.0162505 5.2963 0.0225007C4.58117 0.0581268 3.87035 0.123129 3.19618 0.357511C1.91613 0.7969 0.991125 1.56505 0.45208 2.67196C0.26521 3.04635 0.171057 3.44323 0.104215 3.847C0.0481547 4.17263 0.0179682 4.50139 0.00718728 4.83015C0.00718728 4.8564 0 4.88203 0 4.90828V15.0942C0.00718728 15.2117 0.0150933 15.3286 0.0222806 15.4461C0.071154 16.1268 0.171776 16.8005 0.501672 17.4255C1.12337 18.6075 2.16768 19.385 3.60154 19.7594C4.00187 19.8669 4.42161 19.9156 4.84063 19.9481C5.37249 19.9938 5.90363 20 6.43549 20H17.0065C17.5082 20 18.0099 19.9706 18.5115 19.9156C19.3014 19.8275 20.0424 19.6256 20.713 19.2419C21.518 18.7793 22.1246 18.1674 22.5134 17.4024C22.6931 17.0505 22.7944 16.6768 22.8692 16.2986C22.9777 15.7355 23 15.1655 23 14.5961C22.9964 11.4316 23 8.26776 22.9964 5.10328L22.9907 5.10453ZM16.8362 8.42776V13.1873C16.8362 13.5354 16.7801 13.8773 16.6005 14.1929C16.3237 14.6842 15.8745 14.9936 15.2715 15.1436C14.938 15.228 14.5938 15.2736 14.2459 15.2867C13.336 15.3261 12.5461 14.7886 12.3851 14.0073C12.2464 13.3629 12.6022 12.6529 13.3806 12.321C13.6874 12.191 14.0209 12.1129 14.3537 12.0541C14.7167 11.986 15.0796 11.9241 15.439 11.8522C15.7049 11.8004 15.8767 11.6604 15.9292 11.4222C15.9443 11.3704 15.9478 11.3147 15.9478 11.2629C15.9478 9.74905 15.9478 8.23526 15.9478 6.72521C15.9478 6.67333 15.9363 6.62083 15.922 6.57208C15.8846 6.4452 15.7797 6.3702 15.6302 6.37645C15.4764 6.3827 15.3269 6.40583 15.1774 6.43208C14.4471 6.55583 13.7176 6.68271 12.991 6.81271L9.44624 7.43461C9.43114 7.43773 9.41246 7.44461 9.39736 7.44461C9.13143 7.50961 9.038 7.61399 9.0265 7.85462C9.02291 7.89025 9.0265 7.9265 9.0265 7.96212C9.02291 10.1303 9.0265 12.2985 9.02291 14.4661C9.02291 14.818 8.97762 15.163 8.81735 15.488C8.55142 16.0218 8.07994 16.3574 7.44386 16.5168C7.10678 16.6011 6.76251 16.6505 6.41033 16.6599C5.49323 16.6893 4.72923 16.1586 4.57254 15.3742C4.43742 14.6973 4.79319 13.9679 5.67651 13.6423C6.02078 13.5185 6.37655 13.4504 6.73951 13.3854C7.01262 13.3367 7.29005 13.2879 7.56317 13.2392C7.92972 13.171 8.1209 12.9692 8.13959 12.6435V12.5198C8.13959 10.0522 8.13959 7.58461 8.13959 5.11704C8.13959 5.01266 8.15468 4.9089 8.18056 4.80765C8.24812 4.57014 8.44289 4.43326 8.70451 4.37764C8.94816 4.32201 9.19899 4.28326 9.44552 4.23763C10.1492 4.11388 10.8492 3.99012 11.5528 3.8695L13.7277 3.48511C14.3717 3.37448 15.0113 3.26073 15.6553 3.1501C15.8652 3.11447 16.0787 3.0751 16.2914 3.06197C16.5868 3.03947 16.7931 3.20198 16.8233 3.46261C16.8304 3.52449 16.8348 3.58636 16.8348 3.64824V8.42401L16.8362 8.42776Z" fill="#FF763B"/>
</g>
</g>
<defs>
<filter id="filter0_d_0_1" x="-5" y="-1" width="33" height="30" filterUnits="userSpaceOnUse" color-interpolation-filters="sRGB">
<feFlood flood-opacity="0" result="BackgroundImageFix"/>
<feColorMatrix in="SourceAlpha" type="matrix" values="0 0 0 0 0 0 0 0 0 0 0 0 0 0 0 0 0 0 127 0" result="hardAlpha"/>
<feOffset dy="4"/>
<feGaussianBlur stdDeviation="2.5"/>
<feComposite in2="hardAlpha" operator="out"/>
<feColorMatrix type="matrix" values="0 0 0 0 0 0 0 0 0 0 0 0 0 0 0 0 0 0 0.25 0"/>
<feBlend mode="normal" in2="BackgroundImageFix" result="effect1_dropShadow_0_1"/>
<feBlend mode="normal" in="SourceGraphic" in2="effect1_dropShadow_0_1" result="shape"/>
</filter>
<clipPath id="clip0_0_1">
<rect width="393" height="852" fill="white" transform="translate(-159 -267)"/>
</clipPath>
</defs>
</svg>
