<svg width="52" height="62" viewBox="0 0 52 62" fill="none" xmlns="http://www.w3.org/2000/svg">
<path d="M14.1075 61.05C11.8111 61.05 9.63097 60.4308 7.71247 59.1925C3.17784 56.2596 0.677979 50.2961 0.677979 42.4425V19.2075C0.677979 11.3213 3.17784 5.39038 7.71247 2.45749C12.2471 -0.475386 18.0898 0.0786022 24.1941 4.0217L42.1291 15.6229C48.2044 19.566 51.5763 24.9755 51.5763 30.8413C51.5763 36.7071 48.2334 42.1166 42.1291 46.0597L24.1941 57.6609C20.6769 59.9094 17.2468 61.05 14.1075 61.05ZM14.1075 5.45555C12.5378 5.45555 11.1425 5.8466 9.89258 6.66129C6.75322 8.68172 5.0382 13.1462 5.0382 19.2075V42.4099C5.0382 48.4712 6.75322 52.9031 9.89258 54.9561C13.0319 57.0091 17.334 56.4225 22.014 53.3919L39.949 41.7907C44.629 38.7601 47.2161 34.8822 47.2161 30.8087C47.2161 26.7353 44.629 22.8573 39.949 19.8267L22.014 8.22549C19.1653 6.40059 16.491 5.45555 14.1075 5.45555Z" fill="white"/>
</svg>
